<svg style="position: absolute; width: 0; height: 0;" width="0" height="0" version="1.1" xmlns="http://www.w3.org/2000/svg" xmlns:xlink="http://www.w3.org/1999/xlink">
<defs>
<symbol id="i-hide" viewBox="0 0 1024 1024">
<title>hide</title>
<path class="path1" d="M545.264 673.22c-38.88 19.526-82.857 30.585-129.253 30.585-79.487 0-151.544-32.227-203.642-84.325l0.086-0.086c-52.099-52.099-84.412-124.155-84.412-203.469s32.313-151.371 84.412-203.469l-0.086-0.086c52.099-52.012 124.155-84.325 203.642-84.325s151.544 32.227 203.642 84.325l-0.086 0.086c52.099 52.099 84.412 124.155 84.412 203.469 0 46.396-11.145 90.287-30.758 129.253l222.736 222.736-127.957 128.043-222.736-222.736zM256 383.957h320.022v64.022h-320.022v-64.022zM574.466 257.555c-40.435-40.435-96.594-65.577-158.456-65.577s-118.021 25.142-158.456 65.577h-0.173c-40.435 40.348-65.49 96.421-65.49 158.369s25.056 118.021 65.49 158.369h0.173c40.435 40.435 96.594 65.577 158.456 65.577s118.021-25.142 158.456-65.577h0.173c40.435-40.348 65.49-96.421 65.49-158.369s-25.056-118.021-65.49-158.369h-0.173z"></path>
</symbol>
<symbol id="i-unhide" viewBox="0 0 1024 1024">
<title>unhide</title>
<path class="path1" d="M545.197 673.218c-38.9 19.578-82.907 30.643-129.298 30.643-79.417 0-151.515-32.261-203.608-84.354l0.085-0.085c-52.094-52.094-84.44-124.191-84.44-203.523s32.346-151.429 84.44-203.523l-0.085-0.085c52.009-52.094 124.191-84.354 203.608-84.354s151.515 32.261 203.608 84.354l-0.085 0.085c52.094 52.094 84.44 124.191 84.44 203.523 0 46.476-11.066 90.398-30.729 129.298l222.76 222.76-127.936 128.021-222.76-222.76zM255.872 383.979h128.021v-127.936h64.011v127.936h127.936v64.011h-127.936v128.021h-64.011v-128.021h-128.021v-64.011zM574.308 257.49c-40.432-40.432-96.612-65.628-158.409-65.628s-117.977 25.196-158.409 65.628h-0.17c-40.432 40.347-65.458 96.442-65.458 158.324s25.025 117.977 65.458 158.324h0.17c40.432 40.432 96.612 65.628 158.409 65.628s117.977-25.196 158.409-65.628h0.17c40.432-40.347 65.458-96.442 65.458-158.324s-25.025-117.977-65.458-158.324h-0.17z"></path>
</symbol>
<symbol id="i-pin" viewBox="0 0 1024 1024">
<title>pin</title>
<path class="path1" d="M383.957 576.022c0 0 0 191.978 0 191.978 95.989 0 191.978-128.043 191.978-128.043h223.946c0 0 31.968 64.022 95.989 64.022v-319.935c-64.022 0-95.989 64.022-95.989 64.022h-223.946c0 0-95.989-128.043-191.978-128.043 0 0 0 191.978 0 191.978h-128.043c-95.989 0-191.978 31.968-191.978 31.968s95.989 32.054 191.978 32.054h128.043z"></path>
</symbol>
<symbol id="i-unpin" viewBox="0 0 1024 1024">
<title>unpin</title>
<path class="path1" d="M409.004 660.365c0 0 135.767 135.767 135.767 135.767 67.841-67.841 45.199-226.335 45.199-226.335l158.409-158.324c0 0 67.841 22.642 113.125-22.642l-226.25-226.25c-45.284 45.284-22.642 113.125-22.642 113.125l-158.324 158.324c0 0-158.409-22.642-226.335 45.199 0 0 135.767 135.767 135.767 135.767l-90.568 90.568c-67.841 67.841-113.125 158.324-113.125 158.324s90.568-45.199 158.409-113.125l90.568-90.568z"></path>
</symbol>
<symbol id="i-lock" viewBox="0 0 1024 1024">
<title>lock</title>
<path class="path1" d="M191.978 511.914h63.935v-127.957c0-52.876 21.6-101 56.332-135.646 34.732-34.732 82.77-56.332 135.646-56.332h128.043c52.876 0 101 21.6 135.646 56.332 34.732 34.732 56.332 82.77 56.332 135.646v127.957h63.935v383.957h-639.957v-383.957zM383.957 511.914h255.914v-127.957c0-17.539-7.258-33.523-18.835-45.1s-27.561-18.835-45.1-18.835h-128.043c-17.539 0-33.523 7.258-45.1 18.835s-18.835 27.561-18.835 45.1v127.957z"></path>
</symbol>
<symbol id="i-unlock" viewBox="0 0 1024 1024">
<title>unlock</title>
<path class="path1" d="M191.947 511.915h63.926l0.085-192.032c0-52.945 21.621-100.953 56.35-135.682s82.737-56.35 135.682-56.35h128.021c52.945 0 100.953 21.621 135.682 56.35s56.35 82.737 56.35 135.682v64.011h-128.021v-64.011c0-17.535-7.235-33.537-18.812-45.114s-27.579-18.812-45.114-18.812h-128.021c-17.535 0-33.537 7.235-45.114 18.812s-18.812 27.579-18.812 45.114l-0.085 192.032h447.989v383.979h-640.021v-383.979z"></path>
</symbol>
<symbol id="i-x" viewBox="0 0 1024 1024">
<title>x</title>
<path class="path1" d="M210.78 301.264c-24.901-24.901-24.901-65.584 0-90.572 24.901-24.901 65.584-24.901 90.572 0l210.78 210.78 210.78-210.78c24.901-24.901 65.584-24.901 90.572 0 24.901 24.901 24.901 65.584 0 90.572l-210.78 210.78 210.692 210.692c24.901 24.901 24.901 65.584 0 90.572-24.901 24.901-65.584 24.901-90.572 0l-210.692-210.692-210.692 210.692c-24.901 24.901-65.584 24.901-90.572 0-24.901-24.901-24.901-65.584 0-90.572l210.692-210.692-210.78-210.78z"></path>
</symbol>
<symbol id="i-and" viewBox="0 0 1024 1024">
<title>and</title>
<path class="path1" d="M198.855 686.437c0-42.173 11.486-78.209 34.633-108.722 23.235-30.425 58.394-62.252 105.828-95.394-24.287-32.616-42.349-62.603-54.185-89.783-12.012-27.005-17.799-54.536-17.799-82.593 0-61.638 19.114-110.914 57.605-147.739 38.491-36.913 89.958-55.238 154.49-55.238 56.553 0 102.672 17.448 138.094 52.52 35.335 35.159 53.221 77.508 53.221 127.485 0 34.808-8.768 66.636-26.216 95.394-17.536 29.022-41.297 54.185-71.634 75.93l-49.626 35.247 147.563 171.938c12.801-21.306 22.796-44.541 29.898-69.442 7.102-24.988 10.609-51.292 10.609-78.999h116.525c0 49.1-6.050 94.255-18.237 135.727-12.1 41.297-30.688 78.122-55.501 110.212l111.001 130.378-1.052 2.718h-173.078l-41.209-47.785c-30.337 19.465-61.463 34.282-93.466 44.015-32.090 9.82-66.548 14.73-103.198 14.73-77.683 0-139.409-20.429-185.353-61.112-45.944-40.858-68.915-93.992-68.915-159.4zM461.19 786.478c18.939 0 37.702-2.367 56.728-7.102 18.851-4.91 37-12.012 54.536-21.657l-160.364-185.002-10.171 6.927c-18.325 17.010-30.425 33.581-37.263 49.626-6.576 16.221-9.82 32.529-9.82 48.749 0 31.564 9.82 57.605 29.372 77.859 19.64 20.429 45.242 30.6 76.982 30.6zM406.654 308.278c0 15.256 3.858 31.126 11.486 47.259 7.716 16.133 19.202 34.107 34.458 53.572l46.031-29.898c19.991-12.801 33.318-25.865 40.332-39.368 7.102-13.415 10.609-28.233 10.609-44.278 0-17.711-6.576-33.581-19.465-47.434-13.152-13.853-30.161-20.78-51.117-20.78-23.235 0-41.034 7.716-53.484 23.235-12.363 15.519-18.851 34.808-18.851 57.868z"></path>
</symbol>
<symbol id="i-ban" viewBox="0 0 1024 1024">
<title>ban</title>
<path class="path1" d="M224.086 191.883h191.972c52.841 0 95.986 43.145 95.986 95.986v160.036h384.033v128.011h-384.033v160.036c0 52.841-43.145 95.986-95.986 95.986h-191.972c-52.841 0-95.986-43.145-95.986-95.986v-447.994c0-52.841 43.145-95.986 95.986-95.986z"></path>
</symbol>
<symbol id="i-qr" viewBox="0 0 1024 1024">
<title>qr</title>
<path class="path1" d="M320.072 576.006h384.033v-64.050l-191.972-191.972-191.972 191.972v64.050zM320.072 639.967h384.033v64.050h-384.033v-64.050z"></path>
</symbol>
<symbol id="i-refresh" viewBox="0 0 1024 1024">
<title>refresh</title>
<path class="path1" d="M447.951 639.967h128.011c17.536 0 33.581-7.277 45.155-18.851s18.851-27.619 18.851-45.155v-96.008l111.001-111.001c10.96 24.112 17.010 50.854 17.010 78.999v128.011c0 52.87-21.657 101.006-56.29 135.727-34.721 34.721-82.769 56.29-135.727 56.29h-128.011c-52.87 0-101.006-21.657-135.727-56.29-34.721-34.721-56.29-82.769-56.29-135.727v-128.011c0-52.87 21.657-101.006 56.29-135.727 34.721-34.721 82.769-56.29 135.727-56.29h0.088v-96.008l159.926 160.014-159.926 159.926v-95.921h-0.088c-17.536 0-33.581 7.277-45.155 18.851s-18.851 27.619-18.851 45.155v128.011c0 17.536 7.277 33.581 18.851 45.155s27.619 18.851 45.155 18.851z"></path>
</symbol>
<symbol id="i-reply" viewBox="0 0 1024 1024">
<title>reply</title>
<path class="path1" d="M383.979 704.073v255.874l255.958-255.874h320.010v-512.084h-895.895v512.084z"></path>
</symbol>
<symbol id="i-picture" viewBox="0 0 1024 1024">
<title>picture</title>
<path class="path1" d="M95.995 191.99h863.953v639.853h-895.895v-639.853h31.942zM191.99 511.916l160.047-160.047 256.042 256.042 127.937-127.937 95.911 96.079v127.937h-639.937v-191.99zM640.021 319.927c35.38 0 64.052 28.673 64.052 64.052s-28.673 64.052-64.052 64.052c-35.38 0-64.052-28.673-64.052-64.052s28.673-64.052 64.052-64.052zM896.063 255.874h-768.042v512h768.042v-512z"></path>
</symbol>
<symbol id="i-page" viewBox="0 0 1024 1024">
<title>page</title>
<path class="path1" d="M896.063 959.948h-768.042v-896.063h416.005l352.037 352.037c0 181.174 0.084 362.684 0.084 544.026zM832.010 895.895v-448.031h-320.010v-319.927h-319.927v767.958h640.021zM575.969 191.906v191.906l191.99 0.084-191.99-191.99z"></path>
</symbol>
<symbol id="i-expand" viewBox="0 0 1024 1024">
<title>expand</title>
<path class="path1" d="M895.874 895.986v-384.042l-146.718 146.718-383.93-383.93 146.718-146.718h-384.042v383.93l146.718-146.718 384.042 384.042-146.718 146.718z"></path>
</symbol>
<symbol id="i-shrink" viewBox="0 0 1024 1024">
<title>shrink</title>
<path class="path1" d="M621.366 530.872l338.571 338.571v90.495h-90.607l-338.571-338.571-146.718 146.83v-384.042h-256.14v-256.14h256.14v256.14h384.042z"></path>
</symbol>
<symbol id="i-play" viewBox="0 0 1024 1024">
<title>play</title>
<path class="path1" d="M927.906 543.976l-800.003-287.948v575.895z"></path>
</symbol>
<symbol id="i-burger" viewBox="0 0 1024 1024">
<title>burger</title>
<path class="path1" d="M896.146 192.073h-768.098v128.049h768.098v-128.049zM896.146 447.976h-768.098v128.049h768.098v-128.049zM896.146 704.073h-768.098v128.049h768.098v-128.049z"></path>
</symbol>
<symbol id="i-eye" viewBox="0 0 1024 1024">
<title>eye</title>
<path class="path1" d="M960.015 512.060c-43.302-184.818-229.451-319.924-448.983-319.924s-400.359 138.856-446.927 319.924c43.302 184.818 229.33 319.924 448.862 319.924 219.411 0 400.48-138.856 447.047-319.924zM512 416.023c52.978 0 96.038 43.060 96.038 96.038s-43.060 96.038-96.038 96.038c-52.978 0-96.038-43.060-96.038-96.038s43.060-96.038 96.038-96.038zM512 287.932c123.736 0 224.008 100.271 224.008 224.008s-100.271 224.008-224.008 224.008c-123.736 0-224.008-100.271-224.008-224.008s100.271-224.008 224.008-224.008z"></path>
</symbol>
<symbol id="i-bump" viewBox="0 0 1024 1024">
<title>bump</title>
<path class="path1" d="M204.72 448.021l63.979 63.979 192.111-192.116v550.461h102.375v-550.396l192.056 192.051 63.979-63.919-307.31-307.304z"></path>
</symbol>
<symbol id="i-creation" viewBox="0 0 1024 1024">
<title>creation</title>
<path class="path1" d="M870.295 460.783v102.369h-213.447c5.681-15.963 8.768-33.197 8.768-51.152 0-17.961-3.086-35.189-8.768-51.217h213.447zM628.671 611.827l106.72 184.844-88.706 51.217-106.72-184.909c35.255-6.533 66.269-25.032 88.706-51.152zM483.852 662.979l-106.72 184.909-88.706-51.217 106.845-184.968c22.372 26.179 53.334 44.743 88.582 51.276zM367.211 563.145h-213.565v-102.369h213.565c-5.681 16.022-8.768 33.256-8.768 51.217s3.086 35.189 8.768 51.152zM395.205 412.344l-106.845-185.211 88.641-51.152 106.845 185.027c-35.255 6.533-66.269 25.091-88.641 51.335zM539.964 361.008l106.845-185.027 88.641 51.152-106.786 185.027c-22.431-26.12-53.452-44.625-88.706-51.152z"></path>
</symbol>
<symbol id="i-grid-small" viewBox="0 0 1024 1024">
<title>grid-small</title>
<path class="path1" d="M102.437 102.468h204.812v204.812h-204.812v-204.812zM716.812 716.843h204.812v204.812h-204.812v-204.812zM102.437 716.843h204.812v204.812h-204.812v-204.812zM409.625 716.843h204.812v204.812h-204.812v-204.812zM102.437 409.655h204.812v204.812h-204.812v-204.812zM409.625 409.655h204.812v204.812h-204.812v-204.812zM716.812 409.655h204.812v204.812h-204.812v-204.812zM716.812 102.468h204.812v204.812h-204.812v-204.812zM409.625 102.468h204.812v204.812h-204.812v-204.812z"></path>
</symbol>
<symbol id="i-grid-big" viewBox="0 0 1024 1024">
<title>grid-big</title>
<path class="path1" d="M460.819 460.785h-307.186v-307.13h307.186v307.13zM460.819 870.344h-307.186v-307.13h307.186v307.13zM870.322 870.344h-307.186v-307.13h307.186v307.13zM870.322 460.785h-307.186v-307.13h307.186v307.13z"></path>
</symbol>
<symbol id="i-gallery-grid" viewBox="0 0 1024 1024">
<title>gallery-grid</title>
<path class="path1" d="M716.778 563.222h204.808v358.404h-204.808v-358.404zM716.778 102.433h204.808v358.404h-204.808v-358.404zM409.596 102.433h204.808v358.404h-204.808v-358.404zM102.404 102.433h204.808v358.404h-204.808v-358.404zM102.404 563.222h204.808v358.404h-204.808v-358.404zM409.596 563.222h204.808v358.404h-204.808v-358.404z"></path>
</symbol>
<symbol id="i-legacy-grid" viewBox="0 0 1024 1024">
<title>legacy-grid</title>
<path class="path1" d="M102.425 102.458h153.589v153.589h-153.589v-153.589zM716.768 716.801h153.589v153.589h-153.589v-153.589zM511.973 716.801h153.578v153.589h-153.578v-153.589zM307.232 716.801h153.589v153.589h-153.589v-153.589zM102.425 716.801h153.589v153.589h-153.589v-153.589zM716.768 512.060h153.589v153.589h-153.589v-153.589zM511.973 512.060h153.578v153.589h-153.578v-153.589zM307.232 512.060h153.589v153.589h-153.589v-153.589zM102.425 512.060h153.589v153.589h-153.589v-153.589zM716.768 307.264h153.589v153.589h-153.589v-153.589zM511.973 307.264h153.578v153.589h-153.578v-153.589zM307.232 307.264h153.589v153.589h-153.589v-153.589zM102.425 307.264h153.589v153.589h-153.589v-153.589zM716.768 102.458h153.589v153.589h-153.589v-153.589zM511.973 102.458h153.578v153.589h-153.578v-153.589zM307.232 102.458h153.589v153.589h-153.589v-153.589z"></path>
</symbol>
<symbol id="i-replies" viewBox="0 0 1024 1024">
<title>replies</title>
<path class="path1" d="M563.247 102.318v307.254h-179.178l-153.596 153.596h-25.582v-153.596l-153.719-0.062v-307.192h512.066zM460.691 512.004v307.254h179.178l153.596 153.596h25.582v-153.596l153.719-0.062v-307.192h-512.066z"></path>
</symbol>
</defs>
</svg>
