<svg style="position: absolute; width: 0; height: 0;" width="0" height="0" version="1.1" xmlns="http://www.w3.org/2000/svg" xmlns:xlink="http://www.w3.org/1999/xlink">
<defs>
<symbol id="i-hide" viewBox="0 0 1024 1024">
<path class="path1" d="M545.264 673.22c-38.88 19.526-82.857 30.585-129.253 30.585-79.487 0-151.544-32.227-203.642-84.325l0.086-0.086c-52.099-52.099-84.412-124.155-84.412-203.469s32.313-151.371 84.412-203.469l-0.086-0.086c52.099-52.012 124.155-84.325 203.642-84.325s151.544 32.227 203.642 84.325l-0.086 0.086c52.099 52.099 84.412 124.155 84.412 203.469 0 46.396-11.145 90.287-30.758 129.253l222.736 222.736-127.957 128.043-222.736-222.736zM256 383.957h320.022v64.022h-320.022v-64.022zM574.466 257.555c-40.435-40.435-96.594-65.577-158.456-65.577s-118.021 25.142-158.456 65.577h-0.173c-40.435 40.348-65.49 96.421-65.49 158.369s25.056 118.021 65.49 158.369h0.173c40.435 40.435 96.594 65.577 158.456 65.577s118.021-25.142 158.456-65.577h0.173c40.435-40.348 65.49-96.421 65.49-158.369s-25.056-118.021-65.49-158.369h-0.173z"></path>
</symbol>
<symbol id="i-unhide" viewBox="0 0 1024 1024">
<path class="path1" d="M545.197 673.218c-38.9 19.578-82.907 30.643-129.298 30.643-79.417 0-151.515-32.261-203.608-84.354l0.085-0.085c-52.094-52.094-84.44-124.191-84.44-203.523s32.346-151.429 84.44-203.523l-0.085-0.085c52.009-52.094 124.191-84.354 203.608-84.354s151.515 32.261 203.608 84.354l-0.085 0.085c52.094 52.094 84.44 124.191 84.44 203.523 0 46.476-11.066 90.398-30.729 129.298l222.76 222.76-127.936 128.021-222.76-222.76zM255.872 383.979h128.021v-127.936h64.011v127.936h127.936v64.011h-127.936v128.021h-64.011v-128.021h-128.021v-64.011zM574.308 257.49c-40.432-40.432-96.612-65.628-158.409-65.628s-117.977 25.196-158.409 65.628h-0.17c-40.432 40.347-65.458 96.442-65.458 158.324s25.025 117.977 65.458 158.324h0.17c40.432 40.432 96.612 65.628 158.409 65.628s117.977-25.196 158.409-65.628h0.17c40.432-40.347 65.458-96.442 65.458-158.324s-25.025-117.977-65.458-158.324h-0.17z"></path>
</symbol>
<symbol id="i-pin" viewBox="0 0 1024 1024">
<path class="path1" d="M383.957 576.022c0 0 0 191.978 0 191.978 95.989 0 191.978-128.043 191.978-128.043h223.946c0 0 31.968 64.022 95.989 64.022v-319.935c-64.022 0-95.989 64.022-95.989 64.022h-223.946c0 0-95.989-128.043-191.978-128.043 0 0 0 191.978 0 191.978h-128.043c-95.989 0-191.978 31.968-191.978 31.968s95.989 32.054 191.978 32.054h128.043z"></path>
</symbol>
<symbol id="i-unpin" viewBox="0 0 1024 1024">
<path class="path1" d="M409.004 660.365c0 0 135.767 135.767 135.767 135.767 67.841-67.841 45.199-226.335 45.199-226.335l158.409-158.324c0 0 67.841 22.642 113.125-22.642l-226.25-226.25c-45.284 45.284-22.642 113.125-22.642 113.125l-158.324 158.324c0 0-158.409-22.642-226.335 45.199 0 0 135.767 135.767 135.767 135.767l-90.568 90.568c-67.841 67.841-113.125 158.324-113.125 158.324s90.568-45.199 158.409-113.125l90.568-90.568z"></path>
</symbol>
<symbol id="i-lock" viewBox="0 0 1024 1024">
<path class="path1" d="M191.978 511.914h63.935v-127.957c0-52.876 21.6-101 56.332-135.646 34.732-34.732 82.77-56.332 135.646-56.332h128.043c52.876 0 101 21.6 135.646 56.332 34.732 34.732 56.332 82.77 56.332 135.646v127.957h63.935v383.957h-639.957v-383.957zM383.957 511.914h255.914v-127.957c0-17.539-7.258-33.523-18.835-45.1s-27.561-18.835-45.1-18.835h-128.043c-17.539 0-33.523 7.258-45.1 18.835s-18.835 27.561-18.835 45.1v127.957z"></path>
</symbol>
<symbol id="i-unlock" viewBox="0 0 1024 1024">
<path class="path1" d="M191.947 511.915h63.926l0.085-192.032c0-52.945 21.621-100.953 56.35-135.682s82.737-56.35 135.682-56.35h128.021c52.945 0 100.953 21.621 135.682 56.35s56.35 82.737 56.35 135.682v64.011h-128.021v-64.011c0-17.535-7.235-33.537-18.812-45.114s-27.579-18.812-45.114-18.812h-128.021c-17.535 0-33.537 7.235-45.114 18.812s-18.812 27.579-18.812 45.114l-0.085 192.032h447.989v383.979h-640.021v-383.979z"></path>
</symbol>
<symbol id="i-x" viewBox="0 0 1024 1024">
<path class="path1" d="M210.78 301.264c-24.901-24.901-24.901-65.584 0-90.572 24.901-24.901 65.584-24.901 90.572 0l210.78 210.78 210.78-210.78c24.901-24.901 65.584-24.901 90.572 0 24.901 24.901 24.901 65.584 0 90.572l-210.78 210.78 210.692 210.692c24.901 24.901 24.901 65.584 0 90.572-24.901 24.901-65.584 24.901-90.572 0l-210.692-210.692-210.692 210.692c-24.901 24.901-65.584 24.901-90.572 0-24.901-24.901-24.901-65.584 0-90.572l210.692-210.692-210.78-210.78z"></path>
</symbol>
<symbol id="i-and" viewBox="0 0 1024 1024">
<path class="path1" d="M198.855 686.437c0-42.173 11.486-78.209 34.633-108.722 23.235-30.425 58.394-62.252 105.828-95.394-24.287-32.616-42.349-62.603-54.185-89.783-12.012-27.005-17.799-54.536-17.799-82.593 0-61.638 19.114-110.914 57.605-147.739 38.491-36.913 89.958-55.238 154.49-55.238 56.553 0 102.672 17.448 138.094 52.52 35.335 35.159 53.221 77.508 53.221 127.485 0 34.808-8.768 66.636-26.216 95.394-17.536 29.022-41.297 54.185-71.634 75.93l-49.626 35.247 147.563 171.938c12.801-21.306 22.796-44.541 29.898-69.442 7.102-24.988 10.609-51.292 10.609-78.999h116.525c0 49.1-6.050 94.255-18.237 135.727-12.1 41.297-30.688 78.122-55.501 110.212l111.001 130.378-1.052 2.718h-173.078l-41.209-47.785c-30.337 19.465-61.463 34.282-93.466 44.015-32.090 9.82-66.548 14.73-103.198 14.73-77.683 0-139.409-20.429-185.353-61.112-45.944-40.858-68.915-93.992-68.915-159.4zM461.19 786.478c18.939 0 37.702-2.367 56.728-7.102 18.851-4.91 37-12.012 54.536-21.657l-160.364-185.002-10.171 6.927c-18.325 17.010-30.425 33.581-37.263 49.626-6.576 16.221-9.82 32.529-9.82 48.749 0 31.564 9.82 57.605 29.372 77.859 19.64 20.429 45.242 30.6 76.982 30.6zM406.654 308.278c0 15.256 3.858 31.126 11.486 47.259 7.716 16.133 19.202 34.107 34.458 53.572l46.031-29.898c19.991-12.801 33.318-25.865 40.332-39.368 7.102-13.415 10.609-28.233 10.609-44.278 0-17.711-6.576-33.581-19.465-47.434-13.152-13.853-30.161-20.78-51.117-20.78-23.235 0-41.034 7.716-53.484 23.235-12.363 15.519-18.851 34.808-18.851 57.868z"></path>
</symbol>
<symbol id="i-ban" viewBox="0 0 1024 1024">
<path class="path1" d="M224.086 191.883h191.972c52.841 0 95.986 43.145 95.986 95.986v160.036h384.033v128.011h-384.033v160.036c0 52.841-43.145 95.986-95.986 95.986h-191.972c-52.841 0-95.986-43.145-95.986-95.986v-447.994c0-52.841 43.145-95.986 95.986-95.986z"></path>
</symbol>
<symbol id="i-qr" viewBox="0 0 1024 1024">
<path class="path1" d="M320.072 576.006h384.033v-64.050l-191.972-191.972-191.972 191.972v64.050zM320.072 639.967h384.033v64.050h-384.033v-64.050z"></path>
</symbol>
<symbol id="i-refresh" viewBox="0 0 1024 1024">
<path class="path1" d="M447.951 639.967h128.011c17.536 0 33.581-7.277 45.155-18.851s18.851-27.619 18.851-45.155v-96.008l111.001-111.001c10.96 24.112 17.010 50.854 17.010 78.999v128.011c0 52.87-21.657 101.006-56.29 135.727-34.721 34.721-82.769 56.29-135.727 56.29h-128.011c-52.87 0-101.006-21.657-135.727-56.29-34.721-34.721-56.29-82.769-56.29-135.727v-128.011c0-52.87 21.657-101.006 56.29-135.727 34.721-34.721 82.769-56.29 135.727-56.29h0.088v-96.008l159.926 160.014-159.926 159.926v-95.921h-0.088c-17.536 0-33.581 7.277-45.155 18.851s-18.851 27.619-18.851 45.155v128.011c0 17.536 7.277 33.581 18.851 45.155s27.619 18.851 45.155 18.851z"></path>
</symbol>
<symbol id="i-reply" viewBox="0 0 1024 1024">
<path class="path1" d="M383.979 704.073v255.874l255.958-255.874h320.010v-512.084h-895.895v512.084z"></path>
</symbol>
<symbol id="i-picture" viewBox="0 0 1024 1024">
<path class="path1" d="M95.995 191.99h863.953v639.853h-895.895v-639.853h31.942zM191.99 511.916l160.047-160.047 256.042 256.042 127.937-127.937 95.911 96.079v127.937h-639.937v-191.99zM640.021 319.927c35.38 0 64.052 28.673 64.052 64.052s-28.673 64.052-64.052 64.052c-35.38 0-64.052-28.673-64.052-64.052s28.673-64.052 64.052-64.052zM896.063 255.874h-768.042v512h768.042v-512z"></path>
</symbol>
<symbol id="i-page" viewBox="0 0 1024 1024">
<path class="path1" d="M896.063 959.948h-768.042v-896.063h416.005l352.037 352.037c0 181.174 0.084 362.684 0.084 544.026zM832.010 895.895v-448.031h-320.010v-319.927h-319.927v767.958h640.021zM575.969 191.906v191.906l191.99 0.084-191.99-191.99z"></path>
</symbol>
<symbol id="i-expand" viewBox="0 0 1024 1024">
<path class="path1" d="M895.874 895.986v-384.042l-146.718 146.718-383.93-383.93 146.718-146.718h-384.042v383.93l146.718-146.718 384.042 384.042-146.718 146.718z"></path>
</symbol>
<symbol id="i-shrink" viewBox="0 0 1024 1024">
<path class="path1" d="M621.366 530.872l338.571 338.571v90.495h-90.607l-338.571-338.571-146.718 146.83v-384.042h-256.14v-256.14h256.14v256.14h384.042z"></path>
</symbol>
<symbol id="i-play" viewBox="0 0 1024 1024">
<path class="path1" d="M927.906 543.976l-800.003-287.948v575.895z"></path>
</symbol>
<symbol id="i-burger" viewBox="0 0 1024 1024">
<path class="path1" d="M896.146 192.073h-768.098v128.049h768.098v-128.049zM896.146 447.976h-768.098v128.049h768.098v-128.049zM896.146 704.073h-768.098v128.049h768.098v-128.049z"></path>
</symbol>
<symbol id="i-dots" viewBox="0 0 32 32">
<path class="path1" d="M16.001 3.798c1.214 0 2.199 0.985 2.199 2.199s-0.985 2.199-2.199 2.199c-1.214 0-2.199-0.985-2.199-2.199s0.985-2.199 2.199-2.199zM16.001 23.801c1.214 0 2.199 0.985 2.199 2.199s-0.985 2.199-2.199 2.199c-1.214 0-2.199-0.985-2.199-2.199s0.985-2.199 2.199-2.199zM15.998 13.8c1.214 0 2.199 0.985 2.199 2.199s-0.985 2.199-2.199 2.199c-1.214 0-2.199-0.985-2.199-2.199s0.985-2.199 2.199-2.199z"></path>
</symbol>
<symbol id="i-eye" viewBox="0 0 1024 1024">
<path class="path1" d="M960.015 512.060c-43.302-184.818-229.451-319.924-448.983-319.924s-400.359 138.856-446.927 319.924c43.302 184.818 229.33 319.924 448.862 319.924 219.411 0 400.48-138.856 447.047-319.924zM512 416.023c52.978 0 96.038 43.060 96.038 96.038s-43.060 96.038-96.038 96.038c-52.978 0-96.038-43.060-96.038-96.038s43.060-96.038 96.038-96.038zM512 287.932c123.736 0 224.008 100.271 224.008 224.008s-100.271 224.008-224.008 224.008c-123.736 0-224.008-100.271-224.008-224.008s100.271-224.008 224.008-224.008z"></path>
</symbol>
<symbol id="i-bumplimit" viewBox="0 0 1024 1024">
<path class="path1" d="M192.053 128.010h639.971v127.932h-304.11l272.127 272.127-79.996 79.919-143.962-144.040v432.12h-128.010v-432.197l-144.040 144.117-79.996-79.996 271.972-272.050h-303.955z"></path>
</symbol>
<symbol id="i-skull" viewBox="0 0 1024 1024">
<path class="path1" d="M512 256c-141.365 0-256 114.56-256 256.075 0 94.793 51.514 177.53 128.037 221.782v98.087h256v-98.162c76.523-44.177 127.963-126.914 127.963-221.707 0-141.515-114.56-256.075-256-256.075zM751.902 64.019c44.177 0 76.298 35.94 76.223 80.042 0 31.972 15.949 47.995 51.889 47.92 44.177-0.075 80.042 35.865 80.042 79.967 0 44.252-35.865 80.042-80.042 80.042-39.16 0-71.806-28.228-78.619-65.441l-65.516 65.441-63.944-64.019 65.441-65.292c-37.213-6.889-65.441-39.459-65.441-78.619 0-44.102 35.865-80.042 79.967-80.042zM272.098 64.019c-44.102 0-76.223 35.865-76.149 79.967 0 31.972-15.949 47.995-51.964 47.92-44.102-0.075-79.967 35.865-79.967 79.967 0 44.252 35.865 80.042 79.967 80.042 39.235 0 71.806-28.228 78.694-65.441l65.441 65.441 63.944-64.019-65.366-65.292c37.213-6.889 65.366-39.459 65.366-78.619 0-44.102-35.791-79.967-79.967-79.967zM272.173 959.981c-44.102 0-76.223-35.865-76.149-80.042 0-31.972-15.949-47.995-51.964-47.92-44.102 0.075-80.042-35.791-80.042-79.967s35.94-80.042 80.042-80.042c39.235 0 71.806 28.303 78.694 65.516l65.441-65.516 63.944 64.019-65.366 65.366c37.213 6.814 65.366 39.459 65.366 78.545 0 44.177-35.791 80.042-79.967 80.042zM751.902 959.981c44.177 0 76.298-35.865 76.223-80.042 0-31.972 15.949-47.995 51.889-47.92 44.177 0.075 80.042-35.791 80.042-79.967s-35.865-80.042-80.042-80.042c-39.16 0-71.806 28.303-78.619 65.516l-65.516-65.516-63.944 64.019 65.441 65.366c-37.213 6.814-65.441 39.459-65.441 78.545 0 44.177 35.865 80.042 79.967 80.042zM543.972 735.953l0.075-95.991h31.972v64.019l-32.047 31.972zM624.014 448.056c44.177 0 79.967 28.677 79.967 63.944 0 35.341-35.791 63.944-79.967 63.944-44.102 0-79.967-28.603-79.967-63.944 0-35.266 35.865-63.944 79.967-63.944zM400.061 447.981c44.177 0 79.967 28.677 79.967 64.019 0 35.416-35.791 64.019-79.967 64.019s-80.042-28.603-80.042-64.019c0-35.341 35.865-64.019 80.042-64.019zM480.028 735.953l-31.972-31.972v-64.019h31.972v95.991z"></path>
</symbol>
<symbol id="i-archive" viewBox="0 0 1024 1024">
<path class="path1" d="M223.964 304.090l79.982-79.982 144.054 144.054v-304.163h128v304.090l143.982-143.982 79.982 79.91-288.108 288.036-287.892-287.964zM511.928 959.928l-383.928-192v-255.928l383.928 192 384-192v255.928l-384 192z"></path>
</symbol>
<symbol id="i-bump" viewBox="0 0 1024 1024">
<path class="path1" d="M204.72 448.021l63.979 63.979 192.111-192.116v550.461h102.375v-550.396l192.056 192.051 63.979-63.919-307.31-307.304z"></path>
</symbol>
<symbol id="i-creation" viewBox="0 0 1024 1024">
<path class="path1" d="M870.295 460.783v102.369h-213.447c5.681-15.963 8.768-33.197 8.768-51.152 0-17.961-3.086-35.189-8.768-51.217h213.447zM628.671 611.827l106.72 184.844-88.706 51.217-106.72-184.909c35.255-6.533 66.269-25.032 88.706-51.152zM483.852 662.979l-106.72 184.909-88.706-51.217 106.845-184.968c22.372 26.179 53.334 44.743 88.582 51.276zM367.211 563.145h-213.565v-102.369h213.565c-5.681 16.022-8.768 33.256-8.768 51.217s3.086 35.189 8.768 51.152zM395.205 412.344l-106.845-185.211 88.641-51.152 106.845 185.027c-35.255 6.533-66.269 25.091-88.641 51.335zM539.964 361.008l106.845-185.027 88.641 51.152-106.786 185.027c-22.431-26.12-53.452-44.625-88.706-51.152z"></path>
</symbol>
<symbol id="i-grid-small" viewBox="0 0 1024 1024">
<path class="path1" d="M102.437 102.468h204.812v204.812h-204.812v-204.812zM716.812 716.843h204.812v204.812h-204.812v-204.812zM102.437 716.843h204.812v204.812h-204.812v-204.812zM409.625 716.843h204.812v204.812h-204.812v-204.812zM102.437 409.655h204.812v204.812h-204.812v-204.812zM409.625 409.655h204.812v204.812h-204.812v-204.812zM716.812 409.655h204.812v204.812h-204.812v-204.812zM716.812 102.468h204.812v204.812h-204.812v-204.812zM409.625 102.468h204.812v204.812h-204.812v-204.812z"></path>
</symbol>
<symbol id="i-grid-big" viewBox="0 0 1024 1024">
<path class="path1" d="M460.819 460.785h-307.186v-307.13h307.186v307.13zM460.819 870.344h-307.186v-307.13h307.186v307.13zM870.322 870.344h-307.186v-307.13h307.186v307.13zM870.322 460.785h-307.186v-307.13h307.186v307.13z"></path>
</symbol>
<symbol id="i-gallery-grid" viewBox="0 0 1024 1024">
<path class="path1" d="M716.778 563.222h204.808v358.404h-204.808v-358.404zM716.778 102.433h204.808v358.404h-204.808v-358.404zM409.596 102.433h204.808v358.404h-204.808v-358.404zM102.404 102.433h204.808v358.404h-204.808v-358.404zM102.404 563.222h204.808v358.404h-204.808v-358.404zM409.596 563.222h204.808v358.404h-204.808v-358.404z"></path>
</symbol>
<symbol id="i-legacy-grid" viewBox="0 0 1024 1024">
<path class="path1" d="M102.425 102.458h153.589v153.589h-153.589v-153.589zM716.768 716.801h153.589v153.589h-153.589v-153.589zM511.973 716.801h153.578v153.589h-153.578v-153.589zM307.232 716.801h153.589v153.589h-153.589v-153.589zM102.425 716.801h153.589v153.589h-153.589v-153.589zM716.768 512.060h153.589v153.589h-153.589v-153.589zM511.973 512.060h153.578v153.589h-153.578v-153.589zM307.232 512.060h153.589v153.589h-153.589v-153.589zM102.425 512.060h153.589v153.589h-153.589v-153.589zM716.768 307.264h153.589v153.589h-153.589v-153.589zM511.973 307.264h153.578v153.589h-153.578v-153.589zM307.232 307.264h153.589v153.589h-153.589v-153.589zM102.425 307.264h153.589v153.589h-153.589v-153.589zM716.768 102.458h153.589v153.589h-153.589v-153.589zM511.973 102.458h153.578v153.589h-153.578v-153.589zM307.232 102.458h153.589v153.589h-153.589v-153.589z"></path>
</symbol>
<symbol id="i-replies" viewBox="0 0 1024 1024">
<path class="path1" d="M563.247 102.318v307.254h-179.178l-153.596 153.596h-25.582v-153.596l-153.719-0.062v-307.192h512.066zM460.691 512.004v307.254h179.178l153.596 153.596h25.582v-153.596l153.719-0.062v-307.192h-512.066z"></path>
</symbol>
<symbol id="i-move" viewBox="0 0 512 512">
<path class="path1" d="M390.962 206.262l-18.199-0.159-22.101-27.806c-12.156-15.293-24.584-29.46-27.62-31.482-10.853-7.23-13.83-7.55-69.216-7.448-58.118 0.107-60.783 0.513-70.133 10.681-5.41 5.882-34.085 61.769-34.085 66.429 0 4.605 2.72 9.858 6.886 13.298 4.594 3.793 15.314 3.683 20.1-0.208 2.068-1.681 9.082-13.57 15.585-26.421 8.003-15.813 12.845-23.649 14.978-24.246 5.621-1.571 32.096-0.991 33.137 0.726 0.55 0.907-5.368 18.085-13.15 38.173l-14.151 36.523-3.385 38.575c-1.862 21.216-3.798 42.010-4.303 46.209l-0.918 7.635h-38.228c-21.025 0-40.415 0.445-43.086 0.99-8.972 1.829-16.928 10.67-22.24 24.712-2.656 7.023-4.831 13.154-4.831 13.625s29.977 0.853 66.615 0.849c63.798-0.007 66.833-0.142 71.779-3.216 2.84-1.765 5.824-4.981 6.631-7.145s3.52-22.959 6.028-46.209l4.56-42.273 11.454 24.11c6.3 13.26 15.539 32.788 20.532 43.397 39.37 83.646 40.276 85.335 47.707 89.002 5.898 2.911 9.767 3.416 26.134 3.416 10.566 0 19.211-0.267 19.211-0.594s-8.24-17.866-18.313-38.976c-48.675-102.023-65.675-138.179-65.724-139.786-0.067-2.184 23.953-63.696 25.524-65.366 0.631-0.671 7.491 6.813 15.245 16.629 9.055 11.464 16.636 19.374 21.193 22.113 6.697 4.026 8.442 4.296 31.139 4.811 41.553 2.292 37.453-34.495 5.247-40.57zM330.693 134.44c11.327-3.528 23.882-21.134 23.882-33.492 0-13.395-9.486-28.636-21.197-34.059-14.736-6.824-34.396-1.154-44.031 12.698-3.832 5.509-4.92 8.939-5.431 17.12-0.351 5.627 0.178 12.752 1.175 15.835 2.103 6.496 10.695 16.063 17.782 19.799 6.068 3.198 20.736 4.305 27.819 2.099z"></path>
</symbol>
<symbol id="i-success" viewBox="0 0 32 32">
<path d="M16 3.997c3.402 0 6.473 1.417 8.658 3.692l-9.657 9.657-4.758-4.758-2.83 2.83 7.588 7.588 11.942-11.942c0.68 1.505 1.061 3.177 1.061 4.935 0 6.629-5.377 12.003-12.003 12.003-6.629 0-12.003-5.374-12.003-12.003 0-6.626 5.374-12.003 12.003-12.003z"></path>
</symbol>
<symbol id="i-warning" viewBox="0 0 32 32">
<path d="M17.75 7.037l10.354 17.932c0.371 0.643 0.373 1.38 0 2.022-0.371 0.643-1.009 1.011-1.75 1.011h-20.708c-0.742 0-1.38-0.369-1.75-1.011-0.373-0.643-0.371-1.38 0-2.022l10.354-17.932c0.371-0.643 1.009-1.011 1.75-1.011s1.38 0.369 1.75 1.011zM16.002 22.003c-1.106 0-2.001 0.895-2.001 2.001s0.895 2.001 2.001 2.001c1.106 0 2.001-0.895 2.001-2.001s-0.895-2.001-2.001-2.001zM16.002 11.001h-0.562c-0.624 0-1.16 0.312-1.557 0.914-0.397 0.598-0.546 1.318-0.432 2.081l0.744 4.947c0.182 1.195 0.829 2.060 1.807 2.060s1.625-0.865 1.807-2.060l0.744-4.947c0.113-0.763-0.035-1.484-0.432-2.081-0.397-0.602-0.933-0.914-1.557-0.914h-0.562z"></path>
</symbol>
<symbol id="i-error" viewBox="0 0 32 32">
<path d="M16 3.997c-6.629 0-12.003 5.377-12.003 12.003 0 6.629 5.374 12.003 12.003 12.003 6.626 0 12.003-5.374 12.003-12.003 0-6.626-5.377-12.003-12.003-12.003zM23.779 20.951l-2.83 2.83-4.949-4.951-4.947 4.947-2.828-2.828 4.947-4.947-4.951-4.951 2.828-2.83 4.951 4.951 4.949-4.949 2.83 2.83-4.949 4.949 4.949 4.949z"></path>
</symbol>
<symbol id="i-info" viewBox="0 0 32 32">
<path d="M16 3.996c-6.628 0-12.004 5.376-12.004 12.004s5.376 12.004 12.004 12.004c6.628 0 12.004-5.376 12.004-12.004s-5.376-12.004-12.004-12.004zM14.007 19.996v-4.025h-2.001v-3.973h2.001v-0.002l3.999 0.002v7.998h2.001v3.999h-8v-3.999h2.001zM18.005 9.998h-3.999v-3.999h3.999v3.999z"></path>
</symbol>
<symbol id="i-bell" viewBox="0 0 32 32">
<path d="M16.005 28.993c1.658 0 3-1.342 3-3h-5.999c0 1.658 1.342 3 3 3zM16.005 23.993h-9.998v-1.998c1.998-1.001 3.189-3.758 3.335-4.948l0.638-7.296c0.34-2.808 1.67-3.489 4.025-3.756 0.059-0.95 1.061-1.998 2.001-1.998s1.942 1.049 2.001 1.998c2.353 0.267 3.685 0.95 4.025 3.756l0.638 7.296c0.146 1.188 1.337 3.947 3.335 4.948v1.998h-9.998z"></path>
</symbol>
<symbol id="i-link" viewBox="0 0 43800 43800">
<path class="fil1" d="M6500 26000l5200 -9700c1100,-1900 2900,-3300 4900,-3900l0 0c700,-200 1400,-300 2100,-300l-1600 3000c-1200,500 -2300,1300 -2900,2500l-5300 9700c-700,1300 -800,2800 -400,4200 400,1300 1300,2500 2600,3200 1400,700 2900,800 4200,400 1300,-400 2500,-1300 3300,-2600l5200 -9600c600,-1200 800,-2600 500,-3900l1700 -3000c300,600 600,1200 800,1900 600,2000 500,4300 -600,6300l-5200 9600c-1100,2000 -2900,3400 -4900,4000l0 0c-2000,600 -4300,400 -6300,-700 -2000,-1100 -3300,-2800 -3900,-4900 -600,-2000 -500,-4200 600,-6200zm11300 -6400l5200 -9600c1100,-2000 2900,-3400 4900,-4000l0 0c2000,-600 4200,-400 6200,700 2000,1000 3400,2800 4000,4900 600,2000 400,4200 -700,6200l-5200 9600c-1100,2000 -2900,3400 -4900,4000l0 0c-700,200 -1400,300 -2100,300l1700 -3000c1200,-500 2200,-1300 2900,-2600l5200 -9600c700,-1300 900,-2800 500,-4200 -400,-1300 -1400,-2500 -2700,-3200 -1300,-700 -2800,-900 -4100,-500l-100 0c-1300,400 -2500,1400 -3200,2700l-5200 9600c-700,1200 -800,2600 -500,3800l-1700 3100c-400,-600 -700,-1300 -900,-1900 -600,-2100 -400,-4300 700,-6300z"/>
</symbol>
<symbol id="i-select-multiple" viewBox="0 0 32 32">
<path d="M11.966 3.966v2.017h14.050v13.983h1.95v-16h-16zM3.966 11.966v16h16v-16h-16zM5.983 13.983h12.034v12.034h-12.034v-12.034zM7.462 20.773c-0.269-0.269-0.269-0.739 0-1.076 0.269-0.269 0.807-0.269 1.076 0l2.353 2.353 4.504-6.252c0.202-0.336 0.672-0.403 1.008-0.202 0.336 0.269 0.471 0.74 0.202 1.076l-4.975 6.992c0 0-0.067 0.067-0.067 0.134-0.336 0.269-0.807 0.269-1.076 0l-3.025-3.025zM8 8h16v16h-2.017v-13.983h-13.983v-2.017z"></path>
</symbol>
</defs>
</svg>
